<mxfile host="app.diagrams.net" modified="2022-09-17T20:33:24.965Z" agent="5.0 (Windows NT 10.0; Win64; x64) AppleWebKit/537.36 (KHTML, like Gecko) Chrome/104.0.5112.102 Safari/537.36 OPR/90.0.4480.100" etag="XHgnEc8OsWZ5hCgThJL7" version="20.3.0" type="github">
  <diagram id="C5RBs43oDa-KdzZeNtuy" name="Page-1">
    <mxGraphModel dx="1381" dy="774" grid="1" gridSize="10" guides="1" tooltips="1" connect="1" arrows="1" fold="1" page="1" pageScale="1" pageWidth="827" pageHeight="1169" math="0" shadow="0">
      <root>
        <mxCell id="WIyWlLk6GJQsqaUBKTNV-0" />
        <mxCell id="WIyWlLk6GJQsqaUBKTNV-1" parent="WIyWlLk6GJQsqaUBKTNV-0" />
        <mxCell id="WIyWlLk6GJQsqaUBKTNV-2" value="" style="rounded=0;html=1;jettySize=auto;orthogonalLoop=1;fontSize=11;endArrow=block;endFill=0;endSize=8;strokeWidth=1;shadow=0;labelBackgroundColor=none;edgeStyle=orthogonalEdgeStyle;" parent="WIyWlLk6GJQsqaUBKTNV-1" source="WIyWlLk6GJQsqaUBKTNV-3" target="WIyWlLk6GJQsqaUBKTNV-6" edge="1">
          <mxGeometry relative="1" as="geometry" />
        </mxCell>
        <mxCell id="WIyWlLk6GJQsqaUBKTNV-3" value="inicioDePrograma" style="rounded=1;whiteSpace=wrap;html=1;fontSize=12;glass=0;strokeWidth=1;shadow=0;" parent="WIyWlLk6GJQsqaUBKTNV-1" vertex="1">
          <mxGeometry x="20" y="10" width="120" height="40" as="geometry" />
        </mxCell>
        <mxCell id="avSJuzebeM6dBLc2lMlP-7" style="edgeStyle=orthogonalEdgeStyle;rounded=0;orthogonalLoop=1;jettySize=auto;html=1;startArrow=none;startFill=0;endArrow=classic;endFill=1;entryX=1;entryY=0.5;entryDx=0;entryDy=0;exitX=1;exitY=0.5;exitDx=0;exitDy=0;" edge="1" parent="WIyWlLk6GJQsqaUBKTNV-1" source="WIyWlLk6GJQsqaUBKTNV-6" target="WIyWlLk6GJQsqaUBKTNV-12">
          <mxGeometry relative="1" as="geometry">
            <mxPoint x="180" y="310" as="targetPoint" />
          </mxGeometry>
        </mxCell>
        <mxCell id="WIyWlLk6GJQsqaUBKTNV-6" value="menu()!=5" style="rhombus;whiteSpace=wrap;html=1;shadow=0;fontFamily=Helvetica;fontSize=12;align=center;strokeWidth=1;spacing=6;spacingTop=-4;" parent="WIyWlLk6GJQsqaUBKTNV-1" vertex="1">
          <mxGeometry x="20" y="140" width="100" height="80" as="geometry" />
        </mxCell>
        <mxCell id="WIyWlLk6GJQsqaUBKTNV-11" value="iniciarVariables()" style="rounded=1;whiteSpace=wrap;html=1;fontSize=12;glass=0;strokeWidth=1;shadow=0;" parent="WIyWlLk6GJQsqaUBKTNV-1" vertex="1">
          <mxGeometry x="20" y="60" width="120" height="40" as="geometry" />
        </mxCell>
        <mxCell id="WIyWlLk6GJQsqaUBKTNV-12" value="finDePrograma" style="rounded=1;whiteSpace=wrap;html=1;fontSize=12;glass=0;strokeWidth=1;shadow=0;" parent="WIyWlLk6GJQsqaUBKTNV-1" vertex="1">
          <mxGeometry x="20" y="300" width="120" height="40" as="geometry" />
        </mxCell>
        <mxCell id="avSJuzebeM6dBLc2lMlP-27" style="edgeStyle=orthogonalEdgeStyle;rounded=0;orthogonalLoop=1;jettySize=auto;html=1;exitX=0;exitY=0.5;exitDx=0;exitDy=0;startArrow=none;startFill=0;endArrow=classic;endFill=1;entryX=0;entryY=0.5;entryDx=0;entryDy=0;entryPerimeter=0;" edge="1" parent="WIyWlLk6GJQsqaUBKTNV-1" source="avSJuzebeM6dBLc2lMlP-5" target="avSJuzebeM6dBLc2lMlP-10">
          <mxGeometry relative="1" as="geometry">
            <mxPoint x="220" y="100" as="targetPoint" />
          </mxGeometry>
        </mxCell>
        <mxCell id="avSJuzebeM6dBLc2lMlP-5" value="int&lt;span style=&quot;white-space: pre;&quot;&gt;	&lt;/span&gt;menu()" style="rounded=1;whiteSpace=wrap;html=1;fontSize=12;glass=0;strokeWidth=1;shadow=0;" vertex="1" parent="WIyWlLk6GJQsqaUBKTNV-1">
          <mxGeometry x="240" y="10" width="120" height="40" as="geometry" />
        </mxCell>
        <mxCell id="avSJuzebeM6dBLc2lMlP-20" value="" style="edgeStyle=orthogonalEdgeStyle;rounded=0;orthogonalLoop=1;jettySize=auto;html=1;startArrow=none;startFill=0;endArrow=classic;endFill=1;" edge="1" parent="WIyWlLk6GJQsqaUBKTNV-1" source="avSJuzebeM6dBLc2lMlP-6" target="avSJuzebeM6dBLc2lMlP-14">
          <mxGeometry relative="1" as="geometry" />
        </mxCell>
        <mxCell id="avSJuzebeM6dBLc2lMlP-29" value="" style="edgeStyle=orthogonalEdgeStyle;rounded=0;orthogonalLoop=1;jettySize=auto;html=1;startArrow=none;startFill=0;endArrow=classic;endFill=1;" edge="1" parent="WIyWlLk6GJQsqaUBKTNV-1" source="avSJuzebeM6dBLc2lMlP-6" target="avSJuzebeM6dBLc2lMlP-12">
          <mxGeometry relative="1" as="geometry" />
        </mxCell>
        <mxCell id="avSJuzebeM6dBLc2lMlP-6" value="opcion1" style="rhombus;whiteSpace=wrap;html=1;shadow=0;fontFamily=Helvetica;fontSize=12;align=center;strokeWidth=1;spacing=6;spacingTop=-4;" vertex="1" parent="WIyWlLk6GJQsqaUBKTNV-1">
          <mxGeometry x="220" y="360" width="100" height="80" as="geometry" />
        </mxCell>
        <mxCell id="avSJuzebeM6dBLc2lMlP-39" value="" style="edgeStyle=orthogonalEdgeStyle;rounded=0;orthogonalLoop=1;jettySize=auto;html=1;startArrow=none;startFill=0;endArrow=classic;endFill=1;" edge="1" parent="WIyWlLk6GJQsqaUBKTNV-1" source="avSJuzebeM6dBLc2lMlP-37" target="avSJuzebeM6dBLc2lMlP-33">
          <mxGeometry relative="1" as="geometry" />
        </mxCell>
        <mxCell id="avSJuzebeM6dBLc2lMlP-10" value="int opcionMenu" style="shape=tape;whiteSpace=wrap;html=1;strokeWidth=2;size=0.19" vertex="1" parent="WIyWlLk6GJQsqaUBKTNV-1">
          <mxGeometry x="250" y="60" width="100" height="50" as="geometry" />
        </mxCell>
        <mxCell id="avSJuzebeM6dBLc2lMlP-21" value="" style="edgeStyle=orthogonalEdgeStyle;rounded=0;orthogonalLoop=1;jettySize=auto;html=1;startArrow=none;startFill=0;endArrow=classic;endFill=1;" edge="1" parent="WIyWlLk6GJQsqaUBKTNV-1" source="avSJuzebeM6dBLc2lMlP-11" target="avSJuzebeM6dBLc2lMlP-15">
          <mxGeometry relative="1" as="geometry" />
        </mxCell>
        <mxCell id="avSJuzebeM6dBLc2lMlP-11" value="opcion2" style="rhombus;whiteSpace=wrap;html=1;shadow=0;fontFamily=Helvetica;fontSize=12;align=center;strokeWidth=1;spacing=6;spacingTop=-4;" vertex="1" parent="WIyWlLk6GJQsqaUBKTNV-1">
          <mxGeometry x="220" y="460" width="100" height="70" as="geometry" />
        </mxCell>
        <mxCell id="avSJuzebeM6dBLc2lMlP-22" value="" style="edgeStyle=orthogonalEdgeStyle;rounded=0;orthogonalLoop=1;jettySize=auto;html=1;startArrow=none;startFill=0;endArrow=classic;endFill=1;" edge="1" parent="WIyWlLk6GJQsqaUBKTNV-1" source="avSJuzebeM6dBLc2lMlP-12" target="avSJuzebeM6dBLc2lMlP-16">
          <mxGeometry relative="1" as="geometry" />
        </mxCell>
        <mxCell id="avSJuzebeM6dBLc2lMlP-31" value="" style="edgeStyle=orthogonalEdgeStyle;rounded=0;orthogonalLoop=1;jettySize=auto;html=1;startArrow=none;startFill=0;endArrow=classic;endFill=1;" edge="1" parent="WIyWlLk6GJQsqaUBKTNV-1" source="avSJuzebeM6dBLc2lMlP-12" target="avSJuzebeM6dBLc2lMlP-13">
          <mxGeometry relative="1" as="geometry" />
        </mxCell>
        <mxCell id="avSJuzebeM6dBLc2lMlP-12" value="opcion3" style="rhombus;whiteSpace=wrap;html=1;shadow=0;fontFamily=Helvetica;fontSize=12;align=center;strokeWidth=1;spacing=6;spacingTop=-4;" vertex="1" parent="WIyWlLk6GJQsqaUBKTNV-1">
          <mxGeometry x="220" y="550" width="100" height="70" as="geometry" />
        </mxCell>
        <mxCell id="avSJuzebeM6dBLc2lMlP-23" value="" style="edgeStyle=orthogonalEdgeStyle;rounded=0;orthogonalLoop=1;jettySize=auto;html=1;startArrow=none;startFill=0;endArrow=classic;endFill=1;" edge="1" parent="WIyWlLk6GJQsqaUBKTNV-1" source="avSJuzebeM6dBLc2lMlP-13" target="avSJuzebeM6dBLc2lMlP-17">
          <mxGeometry relative="1" as="geometry" />
        </mxCell>
        <mxCell id="avSJuzebeM6dBLc2lMlP-40" style="edgeStyle=orthogonalEdgeStyle;rounded=0;orthogonalLoop=1;jettySize=auto;html=1;startArrow=none;startFill=0;endArrow=classic;endFill=1;entryX=0.575;entryY=0.025;entryDx=0;entryDy=0;entryPerimeter=0;" edge="1" parent="WIyWlLk6GJQsqaUBKTNV-1" source="avSJuzebeM6dBLc2lMlP-13" target="avSJuzebeM6dBLc2lMlP-19">
          <mxGeometry relative="1" as="geometry">
            <mxPoint x="260" y="850" as="targetPoint" />
            <Array as="points">
              <mxPoint x="270" y="800" />
              <mxPoint x="259" y="800" />
            </Array>
          </mxGeometry>
        </mxCell>
        <mxCell id="avSJuzebeM6dBLc2lMlP-13" value="opcion4" style="rhombus;whiteSpace=wrap;html=1;shadow=0;fontFamily=Helvetica;fontSize=12;align=center;strokeWidth=1;spacing=6;spacingTop=-4;" vertex="1" parent="WIyWlLk6GJQsqaUBKTNV-1">
          <mxGeometry x="220" y="650" width="100" height="70" as="geometry" />
        </mxCell>
        <mxCell id="avSJuzebeM6dBLc2lMlP-14" value="ingresarPKM(pokedex)" style="rounded=1;whiteSpace=wrap;html=1;fontSize=12;glass=0;strokeWidth=1;shadow=0;" vertex="1" parent="WIyWlLk6GJQsqaUBKTNV-1">
          <mxGeometry x="360" y="380" width="180" height="40" as="geometry" />
        </mxCell>
        <mxCell id="avSJuzebeM6dBLc2lMlP-15" value="quitarPKM(pokedex)" style="rounded=1;whiteSpace=wrap;html=1;fontSize=12;glass=0;strokeWidth=1;shadow=0;arcSize=18;" vertex="1" parent="WIyWlLk6GJQsqaUBKTNV-1">
          <mxGeometry x="370" y="460" width="160" height="40" as="geometry" />
        </mxCell>
        <mxCell id="avSJuzebeM6dBLc2lMlP-16" value="batallaPKM()" style="rounded=1;whiteSpace=wrap;html=1;fontSize=12;glass=0;strokeWidth=1;shadow=0;" vertex="1" parent="WIyWlLk6GJQsqaUBKTNV-1">
          <mxGeometry x="370" y="560" width="120" height="40" as="geometry" />
        </mxCell>
        <mxCell id="avSJuzebeM6dBLc2lMlP-17" value="mostrarPKMs()" style="rounded=1;whiteSpace=wrap;html=1;fontSize=12;glass=0;strokeWidth=1;shadow=0;" vertex="1" parent="WIyWlLk6GJQsqaUBKTNV-1">
          <mxGeometry x="370" y="660" width="120" height="40" as="geometry" />
        </mxCell>
        <mxCell id="avSJuzebeM6dBLc2lMlP-43" style="edgeStyle=orthogonalEdgeStyle;rounded=0;orthogonalLoop=1;jettySize=auto;html=1;exitX=0;exitY=0.5;exitDx=0;exitDy=0;startArrow=classic;startFill=1;endArrow=none;endFill=0;" edge="1" parent="WIyWlLk6GJQsqaUBKTNV-1" source="avSJuzebeM6dBLc2lMlP-18">
          <mxGeometry relative="1" as="geometry">
            <mxPoint x="270" y="780" as="targetPoint" />
          </mxGeometry>
        </mxCell>
        <mxCell id="avSJuzebeM6dBLc2lMlP-18" value="default opcionMenu=5" style="rounded=1;whiteSpace=wrap;html=1;fontSize=12;glass=0;strokeWidth=1;shadow=0;" vertex="1" parent="WIyWlLk6GJQsqaUBKTNV-1">
          <mxGeometry x="310" y="760" width="120" height="40" as="geometry" />
        </mxCell>
        <mxCell id="avSJuzebeM6dBLc2lMlP-19" value="return opcionMenu" style="rounded=1;whiteSpace=wrap;html=1;fontSize=12;glass=0;strokeWidth=1;shadow=0;" vertex="1" parent="WIyWlLk6GJQsqaUBKTNV-1">
          <mxGeometry x="190" y="860" width="120" height="40" as="geometry" />
        </mxCell>
        <mxCell id="avSJuzebeM6dBLc2lMlP-36" value="" style="edgeStyle=orthogonalEdgeStyle;rounded=0;orthogonalLoop=1;jettySize=auto;html=1;startArrow=none;startFill=0;endArrow=classic;endFill=1;" edge="1" parent="WIyWlLk6GJQsqaUBKTNV-1" source="avSJuzebeM6dBLc2lMlP-33" target="avSJuzebeM6dBLc2lMlP-6">
          <mxGeometry relative="1" as="geometry">
            <Array as="points">
              <mxPoint x="285" y="320" />
              <mxPoint x="270" y="320" />
            </Array>
          </mxGeometry>
        </mxCell>
        <mxCell id="avSJuzebeM6dBLc2lMlP-33" value="&lt;br&gt;&lt;br&gt;%d &amp;amp;opcionMenu;" style="html=1;strokeWidth=2;shape=manualInput;whiteSpace=wrap;rounded=1;size=26;arcSize=11;" vertex="1" parent="WIyWlLk6GJQsqaUBKTNV-1">
          <mxGeometry x="225" y="220" width="130" height="70" as="geometry" />
        </mxCell>
        <mxCell id="avSJuzebeM6dBLc2lMlP-51" style="edgeStyle=orthogonalEdgeStyle;rounded=0;orthogonalLoop=1;jettySize=auto;html=1;startArrow=none;startFill=0;endArrow=classic;endFill=1;" edge="1" parent="WIyWlLk6GJQsqaUBKTNV-1" source="avSJuzebeM6dBLc2lMlP-46" target="avSJuzebeM6dBLc2lMlP-48">
          <mxGeometry relative="1" as="geometry" />
        </mxCell>
        <mxCell id="avSJuzebeM6dBLc2lMlP-46" value="struct 1 &quot;datos&quot;" style="swimlane;childLayout=stackLayout;horizontal=1;startSize=30;horizontalStack=0;rounded=1;fontSize=14;fontStyle=0;strokeWidth=2;resizeParent=0;resizeLast=1;shadow=0;dashed=0;align=center;" vertex="1" collapsed="1" parent="WIyWlLk6GJQsqaUBKTNV-1">
          <mxGeometry x="450" y="10" width="130" height="30" as="geometry">
            <mxRectangle x="540" y="10" width="160" height="120" as="alternateBounds" />
          </mxGeometry>
        </mxCell>
        <mxCell id="avSJuzebeM6dBLc2lMlP-47" value="string nombre&#xa;int tipo&#xa;float vida&#xa;int nivel&#xa;float xp" style="align=left;strokeColor=none;fillColor=none;spacingLeft=4;fontSize=12;verticalAlign=top;resizable=0;rotatable=0;part=1;" vertex="1" parent="avSJuzebeM6dBLc2lMlP-46">
          <mxGeometry y="30" width="160" height="90" as="geometry" />
        </mxCell>
        <mxCell id="avSJuzebeM6dBLc2lMlP-48" value="tDato" style="shape=tape;whiteSpace=wrap;html=1;strokeWidth=2;size=0.19" vertex="1" parent="WIyWlLk6GJQsqaUBKTNV-1">
          <mxGeometry x="465" y="70" width="100" height="50" as="geometry" />
        </mxCell>
        <mxCell id="avSJuzebeM6dBLc2lMlP-56" style="edgeStyle=orthogonalEdgeStyle;rounded=0;orthogonalLoop=1;jettySize=auto;html=1;exitX=0;exitY=1;exitDx=0;exitDy=0;entryX=0.03;entryY=0.04;entryDx=0;entryDy=0;entryPerimeter=0;startArrow=none;startFill=0;endArrow=classic;endFill=1;" edge="1" parent="WIyWlLk6GJQsqaUBKTNV-1" source="avSJuzebeM6dBLc2lMlP-52" target="avSJuzebeM6dBLc2lMlP-55">
          <mxGeometry relative="1" as="geometry" />
        </mxCell>
        <mxCell id="avSJuzebeM6dBLc2lMlP-52" value="struct 2 &quot;pila&quot;" style="swimlane;childLayout=stackLayout;horizontal=1;startSize=30;horizontalStack=0;rounded=1;fontSize=14;fontStyle=0;strokeWidth=2;resizeParent=0;resizeLast=1;shadow=0;dashed=0;align=center;" vertex="1" parent="WIyWlLk6GJQsqaUBKTNV-1">
          <mxGeometry x="450" y="135" width="160" height="120" as="geometry">
            <mxRectangle x="450" y="135" width="130" height="30" as="alternateBounds" />
          </mxGeometry>
        </mxCell>
        <mxCell id="avSJuzebeM6dBLc2lMlP-53" value="tDato pokemon&#xa;struct nodo* siguiente" style="align=left;strokeColor=none;fillColor=none;spacingLeft=4;fontSize=12;verticalAlign=top;resizable=0;rotatable=0;part=1;" vertex="1" parent="avSJuzebeM6dBLc2lMlP-52">
          <mxGeometry y="30" width="160" height="90" as="geometry" />
        </mxCell>
        <mxCell id="avSJuzebeM6dBLc2lMlP-54" style="edgeStyle=orthogonalEdgeStyle;rounded=0;orthogonalLoop=1;jettySize=auto;html=1;exitX=0.5;exitY=1;exitDx=0;exitDy=0;startArrow=none;startFill=0;endArrow=classic;endFill=1;" edge="1" parent="avSJuzebeM6dBLc2lMlP-52" source="avSJuzebeM6dBLc2lMlP-53" target="avSJuzebeM6dBLc2lMlP-53">
          <mxGeometry relative="1" as="geometry" />
        </mxCell>
        <mxCell id="avSJuzebeM6dBLc2lMlP-55" value="tPila * pokedex" style="shape=tape;whiteSpace=wrap;html=1;strokeWidth=2;size=0.19" vertex="1" parent="WIyWlLk6GJQsqaUBKTNV-1">
          <mxGeometry x="450" y="205" width="100" height="50" as="geometry" />
        </mxCell>
        <mxCell id="avSJuzebeM6dBLc2lMlP-64" style="edgeStyle=orthogonalEdgeStyle;rounded=0;orthogonalLoop=1;jettySize=auto;html=1;startArrow=none;startFill=0;endArrow=classic;endFill=1;" edge="1" parent="WIyWlLk6GJQsqaUBKTNV-1" source="avSJuzebeM6dBLc2lMlP-59" target="avSJuzebeM6dBLc2lMlP-60">
          <mxGeometry relative="1" as="geometry" />
        </mxCell>
        <mxCell id="avSJuzebeM6dBLc2lMlP-59" value="iniciarVariables()" style="rounded=1;whiteSpace=wrap;html=1;fontSize=12;glass=0;strokeWidth=1;shadow=0;" vertex="1" parent="WIyWlLk6GJQsqaUBKTNV-1">
          <mxGeometry x="645" y="20" width="120" height="40" as="geometry" />
        </mxCell>
        <mxCell id="avSJuzebeM6dBLc2lMlP-63" style="edgeStyle=orthogonalEdgeStyle;rounded=0;orthogonalLoop=1;jettySize=auto;html=1;startArrow=none;startFill=0;endArrow=classic;endFill=1;" edge="1" parent="WIyWlLk6GJQsqaUBKTNV-1" source="avSJuzebeM6dBLc2lMlP-60" target="avSJuzebeM6dBLc2lMlP-61">
          <mxGeometry relative="1" as="geometry" />
        </mxCell>
        <mxCell id="avSJuzebeM6dBLc2lMlP-60" value="pokedex-&amp;gt;siguiente=NULL" style="shape=tape;whiteSpace=wrap;html=1;strokeWidth=2;size=0.19;direction=west;" vertex="1" parent="WIyWlLk6GJQsqaUBKTNV-1">
          <mxGeometry x="630" y="110" width="150" height="60" as="geometry" />
        </mxCell>
        <mxCell id="avSJuzebeM6dBLc2lMlP-61" value="&lt;span style=&quot;&quot;&gt;&quot;pila inicializada!!&quot;&lt;/span&gt;" style="text;html=1;resizable=0;autosize=1;align=center;verticalAlign=middle;points=[];fillColor=none;strokeColor=none;rounded=0;" vertex="1" parent="WIyWlLk6GJQsqaUBKTNV-1">
          <mxGeometry x="645" y="200" width="120" height="30" as="geometry" />
        </mxCell>
        <mxCell id="avSJuzebeM6dBLc2lMlP-37" value="&lt;span style=&quot;&quot;&gt;&quot;seleccionar una opcion: &quot;&lt;/span&gt;" style="text;html=1;resizable=0;autosize=1;align=center;verticalAlign=middle;points=[];fillColor=none;strokeColor=none;rounded=0;" vertex="1" parent="WIyWlLk6GJQsqaUBKTNV-1">
          <mxGeometry x="210" y="150" width="160" height="30" as="geometry" />
        </mxCell>
        <mxCell id="avSJuzebeM6dBLc2lMlP-62" value="" style="edgeStyle=orthogonalEdgeStyle;rounded=0;orthogonalLoop=1;jettySize=auto;html=1;startArrow=none;startFill=0;endArrow=none;endFill=1;" edge="1" parent="WIyWlLk6GJQsqaUBKTNV-1" source="avSJuzebeM6dBLc2lMlP-10" target="avSJuzebeM6dBLc2lMlP-37">
          <mxGeometry relative="1" as="geometry">
            <mxPoint x="300" y="110" as="sourcePoint" />
            <mxPoint x="285" y="170" as="targetPoint" />
          </mxGeometry>
        </mxCell>
        <mxCell id="avSJuzebeM6dBLc2lMlP-67" value="" style="edgeStyle=orthogonalEdgeStyle;rounded=0;orthogonalLoop=1;jettySize=auto;html=1;startArrow=none;startFill=0;endArrow=classic;endFill=1;" edge="1" parent="WIyWlLk6GJQsqaUBKTNV-1" source="avSJuzebeM6dBLc2lMlP-65">
          <mxGeometry relative="1" as="geometry">
            <mxPoint x="950" y="120" as="targetPoint" />
          </mxGeometry>
        </mxCell>
        <mxCell id="avSJuzebeM6dBLc2lMlP-65" value="ingresarPKM(tPila* pPokedex)" style="rounded=1;whiteSpace=wrap;html=1;fontSize=12;glass=0;strokeWidth=1;shadow=0;" vertex="1" parent="WIyWlLk6GJQsqaUBKTNV-1">
          <mxGeometry x="860" y="10" width="180" height="40" as="geometry" />
        </mxCell>
        <mxCell id="avSJuzebeM6dBLc2lMlP-68" value="pPokedex=(tPila*)malloc(sizeof(tPila)&lt;br&gt;pPokedex-&amp;gt;pokemon=agregarPokemon()" style="rounded=1;whiteSpace=wrap;html=1;absoluteArcSize=1;arcSize=14;strokeWidth=2;align=left;" vertex="1" parent="WIyWlLk6GJQsqaUBKTNV-1">
          <mxGeometry x="890" y="120" width="330" height="60" as="geometry" />
        </mxCell>
      </root>
    </mxGraphModel>
  </diagram>
</mxfile>
